<svg xmlns="http://www.w3.org/2000/svg" xmlns:xlink="http://www.w3.org/1999/xlink" width="350" zoomAndPan="magnify" viewBox="0 0 262.5 74.999997" height="100" preserveAspectRatio="xMidYMid meet" version="1.0"><defs><g/><clipPath id="1e4799e613"><path d="M 47.019531 21.199219 L 75.519531 21.199219 L 75.519531 50.449219 L 47.019531 50.449219 Z M 47.019531 21.199219 " clip-rule="nonzero"/></clipPath></defs><g fill="#000000" fill-opacity="1"><g transform="translate(84.090946, 38.628388)"><g><path d="M 4.976562 0.183594 C 7.800781 0.183594 9.425781 -1.816406 9.40625 -4.644531 L 4.898438 -4.644531 L 4.898438 -3.324219 L 7.691406 -3.324219 C 7.449219 -2.121094 6.503906 -1.269531 4.964844 -1.269531 C 3.332031 -1.269531 2 -2.449219 2 -4.320312 C 2 -6.164062 3.332031 -7.386719 4.964844 -7.386719 C 6.1875 -7.386719 7.152344 -6.789062 7.601562 -5.78125 L 9.207031 -5.78125 C 8.800781 -7.722656 6.828125 -8.835938 5 -8.835938 C 2.460938 -8.835938 0.425781 -6.835938 0.425781 -4.320312 C 0.425781 -1.828125 2.460938 0.183594 4.976562 0.183594 Z M 4.976562 0.183594 "/></g></g></g><g fill="#000000" fill-opacity="1"><g transform="translate(99.120504, 38.628388)"><g><path d="M 6.503906 0 L 6.503906 -1.414062 L 2.609375 -1.414062 L 2.609375 -8.632812 L 1.027344 -8.632812 L 1.027344 0 Z M 6.503906 0 "/></g></g></g><g fill="#000000" fill-opacity="1"><g transform="translate(111.07872, 38.628388)"><g><path d="M 5.070312 0.183594 C 7.640625 0.183594 9.730469 -1.820312 9.730469 -4.328125 C 9.730469 -6.835938 7.640625 -8.835938 5.070312 -8.835938 C 2.5 -8.835938 0.417969 -6.835938 0.417969 -4.328125 C 0.417969 -1.820312 2.5 0.183594 5.070312 0.183594 Z M 5.070312 -1.269531 C 3.375 -1.269531 2 -2.570312 2 -4.320312 C 2 -6.078125 3.371094 -7.386719 5.070312 -7.386719 C 6.777344 -7.386719 8.15625 -6.085938 8.15625 -4.320312 C 8.15625 -2.570312 6.777344 -1.269531 5.070312 -1.269531 Z M 5.070312 -1.269531 "/></g></g></g><g fill="#000000" fill-opacity="1"><g transform="translate(126.425565, 38.628388)"><g><path d="M 4.472656 0 L 6.46875 -6.46875 L 8.453125 0 L 9.988281 0 L 12.839844 -8.636719 L 11.164062 -8.636719 L 9.355469 -2.875 L 9.175781 -2.121094 L 9.15625 -2.121094 L 9.011719 -2.832031 L 7.296875 -8.632812 L 5.628906 -8.632812 L 3.910156 -2.816406 L 3.78125 -2.121094 L 3.757812 -2.121094 L 3.59375 -2.796875 L 1.765625 -8.636719 L 0.09375 -8.636719 L 2.945312 0 Z M 4.472656 0 "/></g></g></g><g fill="#000000" fill-opacity="1"><g transform="translate(144.551849, 38.628388)"><g><path d="M 2.609375 0 L 2.609375 -6.113281 L 5.164062 -2.570312 L 5.589844 -2.570312 L 8.175781 -6.097656 L 8.175781 0 L 9.753906 0 L 9.753906 -8.632812 L 8.378906 -8.632812 L 5.382812 -4.609375 L 2.40625 -8.632812 L 1.027344 -8.632812 L 1.027344 0 Z M 2.609375 0 "/></g></g></g><g fill="#000000" fill-opacity="1"><g transform="translate(160.526918, 38.628388)"><g><path d="M 2.609375 0 L 2.609375 -8.632812 L 1.027344 -8.632812 L 1.027344 0 Z M 2.609375 0 "/></g></g></g><g fill="#000000" fill-opacity="1"><g transform="translate(169.356674, 38.628388)"><g><path d="M 2.609375 0 L 2.609375 -6.035156 L 7.3125 0 L 8.664062 0 L 8.664062 -8.632812 L 7.089844 -8.632812 L 7.089844 -2.589844 L 2.386719 -8.632812 L 1.027344 -8.632812 L 1.027344 0 Z M 2.609375 0 "/></g></g></g><g fill="#000000" fill-opacity="1"><g transform="translate(184.246626, 38.628388)"><g><path d="M 4.371094 0 C 7.113281 0 8.941406 -1.726562 8.941406 -4.320312 C 8.941406 -6.90625 7.109375 -8.632812 4.355469 -8.632812 L 1.027344 -8.632812 L 1.027344 0 Z M 2.582031 -7.230469 L 4.308594 -7.230469 C 6.246094 -7.230469 7.347656 -6.0625 7.347656 -4.296875 C 7.347656 -2.519531 6.214844 -1.410156 4.320312 -1.410156 L 2.582031 -1.410156 Z M 2.582031 -7.230469 "/></g></g></g><g fill="#000000" fill-opacity="1"><g transform="translate(115.420973, 49.045073)"><g><path d="M 5.28125 0 L 5.265625 -3.5625 L 3.5 -0.59375 L 3.171875 -0.59375 L 1.40625 -3.546875 L 1.40625 0 L 0.734375 0 L 0.734375 -4.90625 L 1.3125 -4.90625 L 3.359375 -1.453125 L 5.375 -4.90625 L 5.9375 -4.90625 L 5.953125 0 Z M 5.28125 0 "/></g></g></g><g fill="#000000" fill-opacity="1"><g transform="translate(127.706058, 49.045073)"><g><path d="M 4.296875 -0.609375 L 4.296875 0 L 0.734375 0 L 0.734375 -4.90625 L 4.1875 -4.90625 L 4.1875 -4.296875 L 1.4375 -4.296875 L 1.4375 -2.78125 L 3.890625 -2.78125 L 3.890625 -2.1875 L 1.4375 -2.1875 L 1.4375 -0.609375 Z M 4.296875 -0.609375 "/></g></g></g><g fill="#000000" fill-opacity="1"><g transform="translate(137.996121, 49.045073)"><g><path d="M 0.734375 -4.90625 L 2.796875 -4.90625 C 3.316406 -4.90625 3.773438 -4.800781 4.171875 -4.59375 C 4.578125 -4.382812 4.890625 -4.09375 5.109375 -3.71875 C 5.335938 -3.351562 5.453125 -2.929688 5.453125 -2.453125 C 5.453125 -1.972656 5.335938 -1.546875 5.109375 -1.171875 C 4.890625 -0.796875 4.578125 -0.503906 4.171875 -0.296875 C 3.773438 -0.0976562 3.316406 0 2.796875 0 L 0.734375 0 Z M 2.765625 -0.609375 C 3.160156 -0.609375 3.503906 -0.6875 3.796875 -0.84375 C 4.097656 -1 4.332031 -1.210938 4.5 -1.484375 C 4.664062 -1.765625 4.75 -2.085938 4.75 -2.453125 C 4.75 -2.816406 4.664062 -3.132812 4.5 -3.40625 C 4.332031 -3.6875 4.097656 -3.90625 3.796875 -4.0625 C 3.503906 -4.21875 3.160156 -4.296875 2.765625 -4.296875 L 1.4375 -4.296875 L 1.4375 -0.609375 Z M 2.765625 -0.609375 "/></g></g></g><g fill="#000000" fill-opacity="1"><g transform="translate(149.378194, 49.045073)"><g><path d="M 0.734375 -4.90625 L 1.4375 -4.90625 L 1.4375 0 L 0.734375 0 Z M 0.734375 -4.90625 "/></g></g></g><g fill="#000000" fill-opacity="1"><g transform="translate(157.148235, 49.045073)"><g><path d="M 3.859375 -1.21875 L 1.25 -1.21875 L 0.71875 0 L 0 0 L 2.21875 -4.90625 L 2.90625 -4.90625 L 5.125 0 L 4.390625 0 Z M 3.609375 -1.78125 L 2.5625 -4.1875 L 1.5 -1.78125 Z M 3.609375 -1.78125 "/></g></g></g><g clip-path="url(#1e4799e613)"><path fill="#5e17eb" d="M 51.621094 41.542969 C 51.621094 43.996094 53.648438 45.972656 56.148438 45.972656 L 58.96875 45.972656 L 58.96875 38.582031 L 63.566406 41.316406 L 63.566406 50.453125 L 56.148438 50.453125 C 53.710938 50.453125 51.421875 49.535156 49.699219 47.847656 C 47.976562 46.160156 47.027344 43.929688 47.027344 41.542969 L 47.027344 31.460938 L 51.621094 34.191406 Z M 70.914062 49.300781 C 71.59375 48.910156 72.253906 48.429688 72.832031 47.863281 C 74.554688 46.175781 75.507812 43.929688 75.507812 41.542969 L 75.507812 31.089844 L 70.914062 35.160156 Z M 63.027344 32.28125 L 47.027344 22.746094 L 47.027344 28.003906 L 63.566406 37.859375 L 75.507812 27.257812 L 75.507812 21.199219 Z M 63.027344 32.28125 " fill-opacity="1" fill-rule="nonzero"/></g></svg>